<svg xmlns="http://www.w3.org/2000/svg" xmlns:xlink="http://www.w3.org/1999/xlink" width="300" zoomAndPan="magnify" viewBox="0 0 224.87999 74.999997" height="100" preserveAspectRatio="xMidYMid meet" version="1.0"><defs><g/><clipPath id="75a216dba3"><path d="M 7.496094 1.480469 L 65.625 1.480469 L 65.625 73.441406 L 7.496094 73.441406 Z M 7.496094 1.480469 " clip-rule="nonzero"/></clipPath></defs><g clip-path="url(#75a216dba3)"><path fill="#76a67e" d="M 7.496094 30.699219 L 7.496094 58.003906 L 23 58.003906 L 23 37.113281 L 36.710938 23.402344 L 50.125 36.816406 L 50.125 58.003906 L 23 58.003906 L 23 73.511719 L 53.011719 73.511719 L 65.625 60.898438 L 65.625 2.597656 L 50.125 2.597656 L 50.125 14.894531 L 47.671875 12.445312 L 36.710938 1.480469 L 23 15.191406 Z M 7.496094 30.699219 " fill-opacity="1" fill-rule="nonzero"/></g><g fill="#000000" fill-opacity="1"><g transform="translate(69.890069, 33.180861)"><g><path d="M 9.28125 -18.28125 L 11.203125 -18.28125 L 19.46875 0 L 17.265625 0 L 15.140625 -4.796875 L 5.265625 -4.796875 L 3.109375 0 L 1.015625 0 Z M 14.328125 -6.640625 L 10.21875 -15.890625 L 6.0625 -6.640625 Z M 14.328125 -6.640625 "/></g></g></g><g fill="#000000" fill-opacity="1"><g transform="translate(87.598788, 33.180861)"><g><path d="M 2.5625 -18.140625 L 4.609375 -18.140625 L 4.609375 -1.890625 L 14.828125 -1.890625 L 14.828125 0 L 2.5625 0 Z M 2.5625 -18.140625 "/></g></g></g><g fill="#000000" fill-opacity="1"><g transform="translate(100.770091, 33.180861)"><g><path d="M 10.859375 0.3125 C 9.546875 0.3125 8.335938 0.0703125 7.234375 -0.40625 C 6.128906 -0.894531 5.171875 -1.554688 4.359375 -2.390625 C 3.546875 -3.234375 2.910156 -4.222656 2.453125 -5.359375 C 1.992188 -6.503906 1.765625 -7.722656 1.765625 -9.015625 L 1.765625 -9.078125 C 1.765625 -10.347656 1.992188 -11.550781 2.453125 -12.6875 C 2.910156 -13.832031 3.546875 -14.832031 4.359375 -15.6875 C 5.171875 -16.550781 6.132812 -17.226562 7.25 -17.71875 C 8.375 -18.207031 9.601562 -18.453125 10.9375 -18.453125 C 11.769531 -18.453125 12.515625 -18.382812 13.171875 -18.25 C 13.835938 -18.113281 14.457031 -17.921875 15.03125 -17.671875 C 15.601562 -17.421875 16.128906 -17.117188 16.609375 -16.765625 C 17.097656 -16.410156 17.566406 -16.015625 18.015625 -15.578125 L 16.609375 -14.078125 C 15.835938 -14.804688 15.003906 -15.398438 14.109375 -15.859375 C 13.222656 -16.328125 12.15625 -16.5625 10.90625 -16.5625 C 9.90625 -16.5625 8.976562 -16.367188 8.125 -15.984375 C 7.269531 -15.609375 6.523438 -15.082031 5.890625 -14.40625 C 5.265625 -13.738281 4.773438 -12.953125 4.421875 -12.046875 C 4.066406 -11.140625 3.890625 -10.164062 3.890625 -9.125 L 3.890625 -9.078125 C 3.890625 -8.015625 4.066406 -7.03125 4.421875 -6.125 C 4.773438 -5.21875 5.265625 -4.425781 5.890625 -3.75 C 6.523438 -3.082031 7.269531 -2.550781 8.125 -2.15625 C 8.976562 -1.769531 9.90625 -1.578125 10.90625 -1.578125 C 12.15625 -1.578125 13.226562 -1.804688 14.125 -2.265625 C 15.019531 -2.722656 15.898438 -3.367188 16.765625 -4.203125 L 18.125 -2.875 C 17.65625 -2.394531 17.164062 -1.957031 16.65625 -1.5625 C 16.144531 -1.175781 15.59375 -0.84375 15 -0.5625 C 14.414062 -0.289062 13.785156 -0.078125 13.109375 0.078125 C 12.441406 0.234375 11.691406 0.3125 10.859375 0.3125 Z M 10.859375 0.3125 "/></g></g></g><g fill="#000000" fill-opacity="1"><g transform="translate(117.234266, 33.180861)"><g><path d="M 10.984375 0.3125 C 9.609375 0.3125 8.351562 0.0625 7.21875 -0.4375 C 6.082031 -0.9375 5.109375 -1.613281 4.296875 -2.46875 C 3.484375 -3.332031 2.859375 -4.328125 2.421875 -5.453125 C 1.984375 -6.585938 1.765625 -7.773438 1.765625 -9.015625 L 1.765625 -9.078125 C 1.765625 -10.316406 1.988281 -11.503906 2.4375 -12.640625 C 2.882812 -13.785156 3.515625 -14.785156 4.328125 -15.640625 C 5.140625 -16.492188 6.113281 -17.175781 7.25 -17.6875 C 8.394531 -18.195312 9.660156 -18.453125 11.046875 -18.453125 C 12.421875 -18.453125 13.675781 -18.203125 14.8125 -17.703125 C 15.945312 -17.203125 16.921875 -16.523438 17.734375 -15.671875 C 18.546875 -14.816406 19.171875 -13.820312 19.609375 -12.6875 C 20.046875 -11.550781 20.265625 -10.363281 20.265625 -9.125 L 20.265625 -9.078125 C 20.265625 -7.828125 20.039062 -6.628906 19.59375 -5.484375 C 19.144531 -4.347656 18.515625 -3.351562 17.703125 -2.5 C 16.890625 -1.644531 15.910156 -0.960938 14.765625 -0.453125 C 13.628906 0.0546875 12.367188 0.3125 10.984375 0.3125 Z M 11.046875 -1.578125 C 12.078125 -1.578125 13.03125 -1.769531 13.90625 -2.15625 C 14.78125 -2.550781 15.523438 -3.082031 16.140625 -3.75 C 16.765625 -4.425781 17.253906 -5.210938 17.609375 -6.109375 C 17.960938 -7.015625 18.140625 -7.984375 18.140625 -9.015625 L 18.140625 -9.078125 C 18.140625 -10.109375 17.960938 -11.078125 17.609375 -11.984375 C 17.253906 -12.890625 16.757812 -13.679688 16.125 -14.359375 C 15.488281 -15.035156 14.734375 -15.570312 13.859375 -15.96875 C 12.984375 -16.363281 12.023438 -16.5625 10.984375 -16.5625 C 9.953125 -16.5625 9 -16.363281 8.125 -15.96875 C 7.25 -15.582031 6.5 -15.050781 5.875 -14.375 C 5.257812 -13.707031 4.773438 -12.925781 4.421875 -12.03125 C 4.066406 -11.132812 3.890625 -10.164062 3.890625 -9.125 L 3.890625 -9.078125 C 3.890625 -8.035156 4.066406 -7.0625 4.421875 -6.15625 C 4.773438 -5.25 5.269531 -4.457031 5.90625 -3.78125 C 6.550781 -3.113281 7.304688 -2.578125 8.171875 -2.171875 C 9.046875 -1.773438 10.003906 -1.578125 11.046875 -1.578125 Z M 11.046875 -1.578125 "/></g></g></g><g fill="#000000" fill-opacity="1"><g transform="translate(136.498668, 33.180861)"><g><path d="M 1.015625 -18.140625 L 3.296875 -18.140625 L 9.75 -2.515625 L 16.234375 -18.140625 L 18.4375 -18.140625 L 10.625 0.125 L 8.8125 0.125 Z M 1.015625 -18.140625 "/></g></g></g><g fill="#000000" fill-opacity="1"><g transform="translate(153.170265, 33.180861)"><g><path d="M 2.5625 -18.140625 L 15.6875 -18.140625 L 15.6875 -16.28125 L 4.609375 -16.28125 L 4.609375 -10.078125 L 14.515625 -10.078125 L 14.515625 -8.21875 L 4.609375 -8.21875 L 4.609375 -1.859375 L 15.8125 -1.859375 L 15.8125 0 L 2.5625 0 Z M 2.5625 -18.140625 "/></g></g></g><g fill="#000000" fill-opacity="1"><g transform="translate(69.890069, 59.523654)"><g><path d="M 9.28125 -18.28125 L 11.203125 -18.28125 L 19.46875 0 L 17.265625 0 L 15.140625 -4.796875 L 5.265625 -4.796875 L 3.109375 0 L 1.015625 0 Z M 14.328125 -6.640625 L 10.21875 -15.890625 L 6.0625 -6.640625 Z M 14.328125 -6.640625 "/></g></g></g><g fill="#000000" fill-opacity="1"><g transform="translate(87.598788, 59.523654)"><g><path d="M 2.5625 -18.140625 L 10.375 -18.140625 C 11.488281 -18.140625 12.484375 -17.976562 13.359375 -17.65625 C 14.234375 -17.34375 14.957031 -16.898438 15.53125 -16.328125 C 15.976562 -15.878906 16.320312 -15.351562 16.5625 -14.75 C 16.800781 -14.144531 16.921875 -13.476562 16.921875 -12.75 L 16.921875 -12.703125 C 16.921875 -11.941406 16.800781 -11.257812 16.5625 -10.65625 C 16.320312 -10.0625 15.976562 -9.546875 15.53125 -9.109375 C 15.09375 -8.671875 14.570312 -8.304688 13.96875 -8.015625 C 13.363281 -7.734375 12.707031 -7.53125 12 -7.40625 L 17.578125 0 L 15.0625 0 L 9.796875 -7.046875 L 4.609375 -7.046875 L 4.609375 0 L 2.5625 0 Z M 10.1875 -8.890625 C 10.863281 -8.890625 11.484375 -8.972656 12.046875 -9.140625 C 12.617188 -9.316406 13.113281 -9.566406 13.53125 -9.890625 C 13.945312 -10.210938 14.269531 -10.601562 14.5 -11.0625 C 14.738281 -11.519531 14.859375 -12.039062 14.859375 -12.625 L 14.859375 -12.671875 C 14.859375 -13.796875 14.453125 -14.671875 13.640625 -15.296875 C 12.828125 -15.929688 11.6875 -16.25 10.21875 -16.25 L 4.609375 -16.25 L 4.609375 -8.890625 Z M 10.1875 -8.890625 "/></g></g></g><g fill="#000000" fill-opacity="1"><g transform="translate(103.570323, 59.523654)"><g><path d="M 10.859375 0.3125 C 9.546875 0.3125 8.335938 0.0703125 7.234375 -0.40625 C 6.128906 -0.894531 5.171875 -1.554688 4.359375 -2.390625 C 3.546875 -3.234375 2.910156 -4.222656 2.453125 -5.359375 C 1.992188 -6.503906 1.765625 -7.722656 1.765625 -9.015625 L 1.765625 -9.078125 C 1.765625 -10.347656 1.992188 -11.550781 2.453125 -12.6875 C 2.910156 -13.832031 3.546875 -14.832031 4.359375 -15.6875 C 5.171875 -16.550781 6.132812 -17.226562 7.25 -17.71875 C 8.375 -18.207031 9.601562 -18.453125 10.9375 -18.453125 C 11.769531 -18.453125 12.515625 -18.382812 13.171875 -18.25 C 13.835938 -18.113281 14.457031 -17.921875 15.03125 -17.671875 C 15.601562 -17.421875 16.128906 -17.117188 16.609375 -16.765625 C 17.097656 -16.410156 17.566406 -16.015625 18.015625 -15.578125 L 16.609375 -14.078125 C 15.835938 -14.804688 15.003906 -15.398438 14.109375 -15.859375 C 13.222656 -16.328125 12.15625 -16.5625 10.90625 -16.5625 C 9.90625 -16.5625 8.976562 -16.367188 8.125 -15.984375 C 7.269531 -15.609375 6.523438 -15.082031 5.890625 -14.40625 C 5.265625 -13.738281 4.773438 -12.953125 4.421875 -12.046875 C 4.066406 -11.140625 3.890625 -10.164062 3.890625 -9.125 L 3.890625 -9.078125 C 3.890625 -8.015625 4.066406 -7.03125 4.421875 -6.125 C 4.773438 -5.21875 5.265625 -4.425781 5.890625 -3.75 C 6.523438 -3.082031 7.269531 -2.550781 8.125 -2.15625 C 8.976562 -1.769531 9.90625 -1.578125 10.90625 -1.578125 C 12.15625 -1.578125 13.226562 -1.804688 14.125 -2.265625 C 15.019531 -2.722656 15.898438 -3.367188 16.765625 -4.203125 L 18.125 -2.875 C 17.65625 -2.394531 17.164062 -1.957031 16.65625 -1.5625 C 16.144531 -1.175781 15.59375 -0.84375 15 -0.5625 C 14.414062 -0.289062 13.785156 -0.078125 13.109375 0.078125 C 12.441406 0.234375 11.691406 0.3125 10.859375 0.3125 Z M 10.859375 0.3125 "/></g></g></g><g fill="#000000" fill-opacity="1"><g transform="translate(120.034498, 59.523654)"><g><path d="M 2.5625 -18.140625 L 4.609375 -18.140625 L 4.609375 -10.078125 L 15.09375 -10.078125 L 15.09375 -18.140625 L 17.140625 -18.140625 L 17.140625 0 L 15.09375 0 L 15.09375 -8.171875 L 4.609375 -8.171875 L 4.609375 0 L 2.5625 0 Z M 2.5625 -18.140625 "/></g></g></g><g fill="#000000" fill-opacity="1"><g transform="translate(136.965372, 59.523654)"><g><path d="M 2.75 -18.140625 L 4.796875 -18.140625 L 4.796875 0 L 2.75 0 Z M 2.75 -18.140625 "/></g></g></g><g fill="#000000" fill-opacity="1"><g transform="translate(141.735969, 59.523654)"><g><path d="M 7.28125 -16.25 L 1.171875 -16.25 L 1.171875 -18.140625 L 15.453125 -18.140625 L 15.453125 -16.25 L 9.328125 -16.25 L 9.328125 0 L 7.28125 0 Z M 7.28125 -16.25 "/></g></g></g><g fill="#000000" fill-opacity="1"><g transform="translate(155.581399, 59.523654)"><g><path d="M 2.5625 -18.140625 L 15.6875 -18.140625 L 15.6875 -16.28125 L 4.609375 -16.28125 L 4.609375 -10.078125 L 14.515625 -10.078125 L 14.515625 -8.21875 L 4.609375 -8.21875 L 4.609375 -1.859375 L 15.8125 -1.859375 L 15.8125 0 L 2.5625 0 Z M 2.5625 -18.140625 "/></g></g></g><g fill="#000000" fill-opacity="1"><g transform="translate(170.178746, 59.523654)"><g><path d="M 10.859375 0.3125 C 9.546875 0.3125 8.335938 0.0703125 7.234375 -0.40625 C 6.128906 -0.894531 5.171875 -1.554688 4.359375 -2.390625 C 3.546875 -3.234375 2.910156 -4.222656 2.453125 -5.359375 C 1.992188 -6.503906 1.765625 -7.722656 1.765625 -9.015625 L 1.765625 -9.078125 C 1.765625 -10.347656 1.992188 -11.550781 2.453125 -12.6875 C 2.910156 -13.832031 3.546875 -14.832031 4.359375 -15.6875 C 5.171875 -16.550781 6.132812 -17.226562 7.25 -17.71875 C 8.375 -18.207031 9.601562 -18.453125 10.9375 -18.453125 C 11.769531 -18.453125 12.515625 -18.382812 13.171875 -18.25 C 13.835938 -18.113281 14.457031 -17.921875 15.03125 -17.671875 C 15.601562 -17.421875 16.128906 -17.117188 16.609375 -16.765625 C 17.097656 -16.410156 17.566406 -16.015625 18.015625 -15.578125 L 16.609375 -14.078125 C 15.835938 -14.804688 15.003906 -15.398438 14.109375 -15.859375 C 13.222656 -16.328125 12.15625 -16.5625 10.90625 -16.5625 C 9.90625 -16.5625 8.976562 -16.367188 8.125 -15.984375 C 7.269531 -15.609375 6.523438 -15.082031 5.890625 -14.40625 C 5.265625 -13.738281 4.773438 -12.953125 4.421875 -12.046875 C 4.066406 -11.140625 3.890625 -10.164062 3.890625 -9.125 L 3.890625 -9.078125 C 3.890625 -8.015625 4.066406 -7.03125 4.421875 -6.125 C 4.773438 -5.21875 5.265625 -4.425781 5.890625 -3.75 C 6.523438 -3.082031 7.269531 -2.550781 8.125 -2.15625 C 8.976562 -1.769531 9.90625 -1.578125 10.90625 -1.578125 C 12.15625 -1.578125 13.226562 -1.804688 14.125 -2.265625 C 15.019531 -2.722656 15.898438 -3.367188 16.765625 -4.203125 L 18.125 -2.875 C 17.65625 -2.394531 17.164062 -1.957031 16.65625 -1.5625 C 16.144531 -1.175781 15.59375 -0.84375 15 -0.5625 C 14.414062 -0.289062 13.785156 -0.078125 13.109375 0.078125 C 12.441406 0.234375 11.691406 0.3125 10.859375 0.3125 Z M 10.859375 0.3125 "/></g></g></g><g fill="#000000" fill-opacity="1"><g transform="translate(186.642917, 59.523654)"><g><path d="M 7.28125 -16.25 L 1.171875 -16.25 L 1.171875 -18.140625 L 15.453125 -18.140625 L 15.453125 -16.25 L 9.328125 -16.25 L 9.328125 0 L 7.28125 0 Z M 7.28125 -16.25 "/></g></g></g><g fill="#000000" fill-opacity="1"><g transform="translate(200.488347, 59.523654)"><g><path d="M 8.78125 0.265625 C 7.332031 0.265625 6.003906 0.0234375 4.796875 -0.453125 C 3.597656 -0.929688 2.457031 -1.660156 1.375 -2.640625 L 2.640625 -4.140625 C 3.585938 -3.273438 4.546875 -2.628906 5.515625 -2.203125 C 6.484375 -1.785156 7.597656 -1.578125 8.859375 -1.578125 C 10.085938 -1.578125 11.066406 -1.863281 11.796875 -2.4375 C 12.535156 -3.019531 12.90625 -3.765625 12.90625 -4.671875 L 12.90625 -4.71875 C 12.90625 -5.132812 12.835938 -5.507812 12.703125 -5.84375 C 12.566406 -6.175781 12.320312 -6.484375 11.96875 -6.765625 C 11.625 -7.046875 11.144531 -7.296875 10.53125 -7.515625 C 9.914062 -7.742188 9.132812 -7.960938 8.1875 -8.171875 C 7.15625 -8.390625 6.253906 -8.644531 5.484375 -8.9375 C 4.710938 -9.238281 4.078125 -9.59375 3.578125 -10 C 3.078125 -10.414062 2.703125 -10.898438 2.453125 -11.453125 C 2.210938 -12.003906 2.09375 -12.65625 2.09375 -13.40625 L 2.09375 -13.453125 C 2.09375 -14.160156 2.238281 -14.816406 2.53125 -15.421875 C 2.832031 -16.023438 3.25 -16.546875 3.78125 -16.984375 C 4.320312 -17.429688 4.953125 -17.78125 5.671875 -18.03125 C 6.398438 -18.28125 7.195312 -18.40625 8.0625 -18.40625 C 9.394531 -18.40625 10.554688 -18.21875 11.546875 -17.84375 C 12.535156 -17.476562 13.5 -16.921875 14.4375 -16.171875 L 13.25 -14.59375 C 12.394531 -15.28125 11.539062 -15.78125 10.6875 -16.09375 C 9.832031 -16.40625 8.941406 -16.5625 8.015625 -16.5625 C 6.816406 -16.5625 5.867188 -16.28125 5.171875 -15.71875 C 4.484375 -15.15625 4.140625 -14.460938 4.140625 -13.640625 L 4.140625 -13.578125 C 4.140625 -13.148438 4.207031 -12.765625 4.34375 -12.421875 C 4.488281 -12.085938 4.742188 -11.773438 5.109375 -11.484375 C 5.472656 -11.203125 5.972656 -10.945312 6.609375 -10.71875 C 7.242188 -10.488281 8.066406 -10.269531 9.078125 -10.0625 C 11.097656 -9.613281 12.585938 -8.988281 13.546875 -8.1875 C 14.503906 -7.394531 14.984375 -6.304688 14.984375 -4.921875 L 14.984375 -4.875 C 14.984375 -4.09375 14.828125 -3.382812 14.515625 -2.75 C 14.203125 -2.125 13.773438 -1.585938 13.234375 -1.140625 C 12.691406 -0.691406 12.039062 -0.34375 11.28125 -0.09375 C 10.519531 0.144531 9.6875 0.265625 8.78125 0.265625 Z M 8.78125 0.265625 "/></g></g></g></svg>